#!OML:ASF H:\Terrain\Walking\May29\JustinRory\Justin.ASF
:FULLY-SPECIFIED
:DEGREES
33
root 13.4292 17.9613 2.8278 173.894 -79.583 -166.737
lowerback 4.32575 0.619224 -0.768526
upperback 0.691366 0.796713 4.03974
thorax -1.78411 0.383429 4.55954
lowerneck -12.3261 -1.31426 -8.46545
upperneck 15.9816 -2.12595 10.2296
head 7.09967 -0.706092 4.54704
rclavicle -1.78906e-014 -1.82882e-014
rhumerus -43.7483 -15.657 -74.2112
rradius 37.7476
rwrist -16.6604
rhand -8.23069 16.7852
rfingers 7.12502
rthumb 17.6869 -12.4304
lclavicle -1.78906e-014 -1.82882e-014
lhumerus -32.592 6.97805 89.9191
lradius 31.6382
lwrist -8.47144
lhand 3.53097 38.0174
lfingers 7.12502
lthumb 28.9678 65.7867
rfemur -13.4315 -0.817916 15.9828
rtibia 25.2485
rfoot -18.2156 -9.71112
rtoes 31.3121
lfemur -7.33833 -3.46358 -10.673
ltibia 22.4756
lfoot -16.8386 8.71778
ltoes -6.78773
34
root 13.4327 17.9558 2.83443 173.669 -79.6117 -166.485
lowerback 4.25383 0.44967 -0.88194
upperback 0.677954 0.564623 4.11466
thorax -1.73973 0.267229 4.7166
lowerneck -12.4339 -1.91705 -8.8146
upperneck 16.832 -2.99837 10.3903
head 7.49072 -1.13553 4.59238
rclavicle 4.77083e-014 -5.56597e-015
rhumerus -43.5093 -14.7956 -75.0871
rradius 37.5557
rwrist -16.3708
rhand -8.56265 16.9283
rfingers 7.12502
rthumb 17.3674 -12.3158
lclavicle 4.77083e-014 -5.56597e-015
lhumerus -32.603 7.08842 89.8017
lradius 31.819
lwrist -8.335
lhand 3.73951 38.2061
lfingers 7.12502
lthumb 29.167 65.941
rfemur -13.5911 -0.929113 16.0048
rtibia 25.4971
rfoot -18.2001 -9.6109
rtoes 31.1669
lfemur -7.38091 -3.53975 -10.6344
ltibia 22.466
lfoot -16.9609 8.75074
ltoes -7.49142
35
root 13.4343 17.9533 2.84744 172.536 -79.55 -165.313
lowerback 4.29224 0.242191 -0.804075
upperback 0.556364 0.294074 4.27456
thorax -1.86305 0.133169 4.85627
lowerneck -11.9913 -2.41372 -9.28318
upperneck 17.3503 -3.7517 10.6694
head 7.67296 -1.522 4.69941
rclavicle 1.21259e-014 2.94201e-014
rhumerus -43.422 -13.9509 -75.6789
rradius 37.3534
rwrist -16.3658
rhand -8.41711 17.0701
rfingers 7.12502
rthumb 17.5075 -12.1616
lclavicle 1.21259e-014 2.94201e-014
lhumerus -32.8043 7.36162 89.6415
lradius 31.9953
lwrist -8.12793
lhand 3.99505 38.541
lfingers 7.12502
lthumb 29.411 66.2333
rfemur -13.7564 -1.01553 16.1894
rtibia 25.7728
rfoot -18.2803 -9.32372
rtoes 31.759
lfemur -7.39732 -3.7407 -10.4023
ltibia 22.4659
lfoot -17.1181 8.82213
ltoes -6.49279
36
root 13.439 17.9469 2.86591 173.47 -79.4872 -166.328
lowerback 4.15694 0.123454 -1.09811
upperback 0.78432 0.11147 4.32895
thorax -1.5365 0.0344604 5.09
lowerneck -11.7631 -3.0139 -9.63701
upperneck 17.449 -4.58252 10.8093
head 7.76791 -1.93831 4.72122
rclavicle 1.59028e-015 2.3059e-014
rhumerus -42.758 -13.8862 -76.0264
rradius 37.099
rwrist -16.0377
rhand -8.13507 17.133
rfingers 7.12502
rthumb 17.7789 -12.0743
lclavicle 1.59028e-015 2.3059e-014
lhumerus -32.3539 7.46216 89.7066
lradius 32.1058
lwrist -7.81742
lhand 3.66102 38.7187
lfingers 7.12502
lthumb 29.092 66.4666
rfemur -13.8578 -1.2213 15.9271
rtibia 26.0286
rfoot -18.2897 -8.97907
rtoes 32.3503
lfemur -7.39309 -3.60151 -10.6094
ltibia 22.555
lfoot -17.2077 8.42509
ltoes -3.77445
37
root 13.4416 17.9342 2.87755 174.873 -79.4775 -167.799
lowerback 4.23132 0.129196 -1.26683
upperback 0.768092 0.116982 4.13181
thorax -1.59529 0.0420506 4.97941
lowerneck -11.4819 -3.86639 -10.0524
upperneck 17.9506 -5.84631 11.0941
head 8.04705 -2.55776 4.76044
rclavicle -1.19271e-014 -1.11319e-014
rhumerus -42.7542 -14.5665 -76.2705
rradius 37.0449
rwrist -15.0826
rhand -8.73335 17.2421
rfingers 7.12502
rthumb 17.2031 -12.0164
lclavicle -1.19271e-014 -1.11319e-014
lhumerus -32.3115 7.27243 89.536
lradius 32.2004
lwrist -7.88788
lhand 3.31363 38.3461
lfingers 7.12502
lthumb 28.7602 66.1508
rfemur -13.9501 -1.39747 15.5878
rtibia 26.2523
rfoot -18.2788 -8.7549
rtoes 32.5085
lfemur -7.48508 -2.98434 -10.8663
ltibia 22.7476
lfoot -17.2647 7.52487
ltoes -1.63336
38
root 13.4457 17.9226 2.88006 174.747 -79.3626 -167.636
lowerback 4.10741 0.113584 -1.29305
upperback 0.790701 0.0943642 4.06055
thorax -1.50029 0.029839 4.92008
lowerneck -11.5088 -4.84542 -10.3704
upperneck 18.7774 -7.27811 11.1475
head 8.51244 -3.25787 4.67693
rclavicle -1.70955e-014 1.66979e-014
rhumerus -42.8506 -15.1765 -76.4401
rradius 37.433
rwrist -14.2433
rhand -9.50298 16.9606
rfingers 7.12502
rthumb 16.4622 -12.361
lclavicle -1.70955e-014 1.66979e-014
lhumerus -32.2114 7.47173 89.1978
lradius 32.2802
lwrist -8.26203
lhand 3.88543 37.8128
lfingers 7.12502
lthumb 29.3063 65.5235
rfemur -14.3648 -1.34895 15.648
rtibia 26.9311
rfoot -18.5256 -8.59494
rtoes 32.1803
lfemur -7.58798 -2.31911 -10.7581
ltibia 22.8281
lfoot -17.2216 6.84231
ltoes -1.10791
39
root 13.4506 17.9209 2.8843 173.861 -79.1956 -166.801
lowerback 3.85702 0.0134322 -1.40897
upperback 1.06075 -0.0592204 4.22439
thorax -1.06699 -0.0612998 5.16329
lowerneck -11.5992 -5.70093 -10.911
upperneck 19.3727 -8.46654 11.2243
head 8.9044 -3.84781 4.65183
rclavicle 1.90833e-014 -3.4191e-014
rhumerus -42.3254 -15.2363 -76.5088
rradius 37.5975
rwrist -14.185
rhand -10.2882 17.0901
rfingers 7.12502
rthumb 15.7061 -12.2925
lclavicle 1.90833e-014 -3.4191e-014
lhumerus -31.696 8.0723 89.0409
lradius 32.2983
lwrist -8.53597
lhand 4.38338 37.6984
lfingers 7.12502
lthumb 29.7817 65.325
rfemur -14.5014 -1.12347 15.8457
rtibia 27.2699
rfoot -18.671 -8.62921
rtoes 31.6983
lfemur -7.60344 -1.89031 -10.5532
ltibia 22.999
lfoot -17.2291 6.51553
ltoes -2.10263
40
root 13.4449 17.9444 2.89643 173.878 -79.1276 -167.027
lowerback 3.85354 -0.117592 -1.62112
upperback 1.23908 -0.251157 4.3171
thorax -0.860634 -0.16612 5.39001
lowerneck -11.1175 -6.44316 -11.8703
upperneck 19.6422 -9.53059 11.6564
head 9.11349 -4.39862 4.83714
rclavicle 4.37326e-015 3.18055e-014
rhumerus -41.6018 -15.0056 -76.4659
rradius 37.1295
rwrist -14.3386
rhand -10.4814 17.5355
rfingers 7.12502
rthumb 15.52 -11.8616
lclavicle 4.37326e-015 3.18055e-014
lhumerus -31.4105 8.45008 88.9651
lradius 32.3496
lwrist -8.52228
lhand 3.98596 37.913
lfingers 7.12502
lthumb 29.4023 65.6068
rfemur -15.1565 -6.5977 17.5235
rtibia 27.8176
rfoot -12.3736 -11.3647
rtoes -21.7994
lfemur -7.42897 -1.74294 -10.6393
ltibia 23.1482
lfoot -17.2143 6.45621
ltoes -3.96966
41
root 13.4441 17.9325 2.91947 174.531 -79.0271 -167.851
lowerback 4.35229 -0.148524 -1.40042
upperback 0.96497 -0.266237 4.03031
thorax -1.42316 -0.155292 4.96997
lowerneck -10.0816 -7.22646 -12.4074
upperneck 20.0642 -10.8291 11.9311
head 9.28706 -5.07258 4.87641
rclavicle -6.16232e-015 -2.06736e-014
rhumerus -41.9238 -15.4499 -76.2872
rradius 37.0188
rwrist -14.0761
rhand -10.5952 18.0817
rfingers 7.12502
rthumb 15.4104 -11.3239
lclavicle -6.16232e-015 -2.06736e-014
lhumerus -31.8813 7.97111 88.5946
lradius 32.5559
lwrist -8.28841
lhand 3.54105 38.207
lfingers 7.12502
lthumb 28.9774 65.9746
rfemur -15.3815 -5.65674 16.9401
rtibia 28.192
rfoot -13.1046 -11.2628
rtoes -15.4077
lfemur -7.32479 -1.90924 -10.8565
ltibia 23.3358
lfoot -17.2906 6.66631
ltoes -4.32041
42
root 13.4464 17.929 2.95847 174.123 -78.8116 -167.554
lowerback 4.18214 -0.388431 -1.35132
upperback 1.28845 -0.602578 4.15088
thorax -0.96134 -0.340754 5.0808
lowerneck -9.8388 -7.93584 -12.8867
upperneck 20.301 -11.8136 11.8624
head 9.48931 -5.58303 4.79931
rclavicle -2.06736e-014 -4.77083e-015
rhumerus -41.4277 -15.7244 -76.1014
rradius 37.3947
rwrist -13.4015
rhand -10.5936 18.6197
rfingers 7.12502
rthumb 15.4119 -10.7858
lclavicle -2.06736e-014 -4.77083e-015
lhumerus -31.3834 8.77653 88.3918
lradius 32.6493
lwrist -8.35164
lhand 3.29501 38.2995
lfingers 7.12502
lthumb 28.7424 66.1072
rfemur -15.483 -6.52769 17.0771
rtibia 28.7331
rfoot -13.0455 -10.7236
rtoes -19.5126
lfemur -7.20724 -2.07008 -10.8848
ltibia 23.424
lfoot -17.6041 6.78934
ltoes -3.07632
43
root 13.448 17.9194 2.99212 174.38 -78.6799 -167.871
lowerback 4.16138 -0.635368 -1.33432
upperback 1.4002 -0.937548 4.14302
thorax -0.802095 -0.514116 5.07693
lowerneck -9.37565 -8.58538 -13.4303
upperneck 20.4995 -12.7725 11.9316
head 9.6524 -6.08502 4.78738
rclavicle 1.8487e-014 -4.21423e-014
rhumerus -41.1272 -15.9136 -75.8792
rradius 37.6556
rwrist -13.0346
rhand -9.4789 18.4452
rfingers 7.12502
rthumb 16.4854 -10.8745
lclavicle 1.8487e-014 -4.21423e-014
lhumerus -31.1883 9.32106 88.0178
lradius 32.7739
lwrist -8.22513
lhand 3.21796 38.2959
lfingers 7.12502
lthumb 28.6688 66.1161
rfemur -15.4846 -7.1588 16.9667
rtibia 28.7977
rfoot -12.8377 -10.1808
rtoes -20.7106
lfemur -7.23338 -1.80142 -11.0085
ltibia 23.6069
lfoot -17.8714 6.37866
ltoes -2.6716
44
root 13.4453 17.9131 3.00453 175.96 -78.5625 -169.506
lowerback 4.01986 -0.746912 -1.77459
upperback 1.53165 -1.10589 4.05729
thorax -0.564142 -0.604372 5.24124
lowerneck -8.87882 -9.36483 -13.9349
upperneck 20.5942 -13.8999 11.925
head 9.79678 -6.66654 4.71172
rclavicle 2.70347e-014 -3.97569e-014
rhumerus -40.5634 -16.1051 -75.5956
rradius 37.5652
rwrist -13.1131
rhand -8.75025 18.4033
rfingers 7.12502
rthumb 17.1868 -10.8566
lclavicle 2.70347e-014 -3.97569e-014
lhumerus -31.0235 9.19236 87.811
lradius 33.0286
lwrist -7.9076
lhand 3.11541 38.5055
lfingers 7.12502
lthumb 28.5708 66.3423
rfemur -15.6233 -7.16348 16.5448
rtibia 29.0113
rfoot -12.8267 -9.94982
rtoes -20.0261
lfemur -7.22029 -1.59734 -11.3553
ltibia 23.7212
lfoot -17.8486 6.05452
ltoes -2.92209
45
root 13.4443 17.9069 3.0093 176.901 -78.2914 -170.476
lowerback 3.8154 -0.838951 -2.28524
upperback 1.68468 -1.2523 4.11589
thorax -0.263782 -0.689711 5.59421
lowerneck -8.3125 -10.0826 -14.5149
upperneck 20.5849 -14.9402 11.9668
head 9.89518 -7.21039 4.67633
rclavicle -6.14245e-014 3.26007e-014
rhumerus -40.0882 -16.396 -75.2254
rradius 37.7182
rwrist -13.1155
rhand -9.1569 18.9467
rfingers 7.12502
rthumb 16.7954 -10.3469
lclavicle -6.14245e-014 3.26007e-014
lhumerus -30.9219 9.56661 87.6233
lradius 33.2625
lwrist -7.88931
lhand 2.83596 38.5669
lfingers 7.12502
lthumb 28.3038 66.4483
rfemur -15.7364 -6.19149 16.2504
rtibia 28.9763
rfoot -12.7889 -10.3469
rtoes -17.7065
lfemur -7.27188 -1.6819 -11.5573
ltibia 23.9767
lfoot -18.0554 6.20022
ltoes -1.80052
46
root 13.4461 17.8941 3.02316 177.053 -78.0558 -170.616
lowerback 4.099 -0.936129 -2.33026
upperback 1.41134 -1.373 4.05603
thorax -0.690812 -0.733236 5.57239
lowerneck -7.04011 -10.5721 -14.9347
upperneck 20.4142 -15.8239 12.135
head 9.78199 -7.70135 4.71981
rclavicle -7.95139e-015 1.66979e-014
rhumerus -40.4634 -16.8741 -74.7002
rradius 38.2803
rwrist -13.3184
rhand -9.00466 19.0498
rfingers 7.12502
rthumb 16.942 -10.2313
lclavicle -7.95139e-015 1.66979e-014
lhumerus -31.5215 10.0601 87.0861
lradius 33.5315
lwrist -8.07442
lhand 2.88512 38.3008
lfingers 7.12502
lthumb 28.3508 66.1744
rfemur -15.8704 -5.0684 16.0609
rtibia 28.8691
rfoot -12.8274 -10.9076
rtoes -14.2228
lfemur -7.38649 -1.76731 -11.6248
ltibia 24.2466
lfoot -18.3628 6.37212
ltoes -0.604122
47
root 13.4479 17.8648 3.04324 178.363 -77.8766 -172.124
lowerback 3.81111 -1.16528 -2.93934
upperback 1.80817 -1.71157 4.03625
thorax -0.0636402 -0.929999 5.89882
lowerneck -6.2928 -11.0508 -15.1021
upperneck 19.7351 -16.5404 12.315
head 9.5479 -8.06175 4.72976
rclavicle 5.68524e-014 -1.27222e-014
rhumerus -39.4339 -16.9259 -74.571
rradius 38.5636
rwrist -13.7285
rhand -8.23107 18.7165
rfingers 7.12502
rthumb 17.6865 -10.4992
lclavicle 5.68524e-014 -1.27222e-014
lhumerus -31.1091 10.7917 86.7005
lradius 33.766
lwrist -8.10192
lhand 3.13474 38.1514
lfingers 7.12502
lthumb 28.5893 65.985
rfemur -15.7236 -4.60248 15.5502
rtibia 28.856
rfoot -13.0022 -10.9774
rtoes -11.5472
lfemur -7.26049 -1.87887 -12.0571
ltibia 24.4523
lfoot -18.5146 6.64963
ltoes -1.18389
